<?xml version="1.0" standalone="no"?>
<!DOCTYPE svg PUBLIC "-//W3C//DTD SVG 20010904//EN"
 "http://www.w3.org/TR/2001/REC-SVG-20010904/DTD/svg10.dtd">
<svg version="1.0" xmlns="http://www.w3.org/2000/svg"
 width="401.000000pt" height="401.000000pt" viewBox="0 0 401.000000 401.000000"
 preserveAspectRatio="xMidYMid meet">
<metadata>
Created by potrace 1.14, written by Peter Selinger 2001-2017
</metadata>
<g transform="translate(0.000000,401.000000) scale(0.100000,-0.100000)"
fill="#000000" stroke="none">
<path d="M1865 3909 c13 -120 16 -113 -72 -154 l-78 -37 64 -29 c35 -16 67
-29 72 -29 9 0 30 -35 25 -41 -2 -2 -7 -37 -11 -78 l-7 -74 36 28 c20 15 39
25 42 22 5 -5 8 -117 5 -224 -1 -32 -4 -30 -136 102 -139 139 -159 151 -199
122 -10 -8 -18 -26 -18 -41 0 -23 32 -61 176 -205 l177 -177 3 -80 c1 -43 0
-85 -2 -92 -2 -7 -58 42 -129 113 -69 69 -134 130 -144 136 -29 15 -66 1 -78
-31 -13 -38 -2 -51 190 -241 101 -99 158 -163 160 -179 10 -61 2 -366 -10
-389 -12 -22 -16 -18 -60 90 -26 63 -51 123 -56 134 -16 37 -10 47 35 62 25 8
51 16 59 19 9 3 -3 15 -31 33 -25 16 -49 34 -52 40 -6 9 5 66 21 107 4 11 -12
7 -54 -14 l-59 -30 -40 38 c-21 22 -43 39 -49 40 -6 0 -9 -24 -9 -55 2 -62 -2
-66 -80 -89 l-41 -12 53 -33 c28 -18 52 -38 52 -45 0 -7 -6 -34 -14 -59 -8
-26 -10 -47 -5 -47 4 0 29 12 55 26 25 14 47 24 48 22 8 -11 116 -280 116
-288 0 -22 -90 54 -213 178 l-125 127 -1 230 -1 230 -25 22 c-19 17 -31 20
-48 14 -39 -14 -45 -43 -43 -208 1 -85 -2 -157 -5 -159 -4 -2 -34 26 -68 61
l-61 66 0 228 c0 212 -1 229 -19 245 -26 24 -72 17 -87 -11 -6 -14 -10 -84
-10 -183 l1 -160 -80 80 c-43 43 -77 81 -75 84 3 2 20 6 38 9 19 3 36 7 38 9
2 3 -26 29 -62 59 -41 34 -63 59 -61 69 3 8 17 45 31 83 14 37 25 67 23 67 -1
0 -38 -14 -82 -31 l-80 -30 -20 23 c-11 13 -36 43 -55 66 -39 48 -45 44 -54
-41 -11 -91 -6 -87 -111 -103 -22 -3 -45 -7 -52 -8 -24 -4 -23 -14 4 -31 15
-10 34 -24 40 -31 7 -7 25 -22 39 -33 29 -23 29 -22 -10 -123 l-26 -68 68 26
c111 43 90 49 176 -54 l35 -43 6 28 c14 63 16 62 110 -29 l89 -88 -179 0
c-204 0 -228 -6 -233 -57 -6 -59 12 -63 276 -63 266 0 267 0 343 -81 l46 -49
-36 -1 c-20 0 -103 -1 -186 0 -169 0 -195 -8 -195 -59 0 -56 17 -60 291 -60
l247 0 130 -128 c110 -110 178 -192 157 -192 -3 0 -60 23 -128 51 -67 28 -132
55 -145 60 l-22 9 30 53 c16 30 30 56 30 59 0 4 -24 0 -52 -8 -29 -7 -56 -14
-59 -14 -4 0 -21 23 -39 50 -18 28 -34 49 -35 48 -2 -2 -12 -28 -22 -58 l-19
-55 -62 0 c-34 0 -62 -3 -62 -7 0 -4 19 -25 42 -47 l43 -39 -28 -57 -27 -56
32 6 c95 19 90 21 125 -37 l31 -52 19 60 18 60 149 -62 c104 -43 144 -64 135
-70 -8 -5 -113 -10 -233 -12 l-219 -3 -161 159 c-89 88 -168 162 -176 164 -24
8 -60 -10 -69 -34 -13 -35 6 -62 128 -180 l111 -108 -94 0 -94 0 -156 155
c-85 85 -166 159 -179 164 -23 9 -55 -1 -69 -23 -19 -28 -1 -56 109 -167 64
-65 114 -121 111 -124 -3 -3 -53 -4 -112 -3 l-106 3 25 37 c14 20 25 39 25 41
0 2 -21 0 -48 -4 -26 -4 -65 -8 -88 -8 l-40 -1 -34 81 -35 81 -37 -82 -38 -82
-82 7 c-46 4 -87 10 -93 13 -6 3 -5 -1 1 -9 54 -70 94 -130 94 -139 0 -10 -36
-67 -51 -80 -22 -21 -50 -78 -31 -67 4 3 42 8 84 12 l77 7 38 -82 38 -82 29
69 c42 98 37 95 125 87 42 -3 79 -8 84 -11 14 -9 6 11 -18 43 -14 18 -25 35
-25 38 0 2 59 5 132 5 l132 1 -137 -138 c-82 -83 -137 -146 -137 -158 1 -28
22 -52 53 -59 25 -7 41 7 195 160 92 92 181 173 197 180 34 15 58 18 131 16
l52 -1 -138 -139 c-76 -77 -137 -145 -136 -153 10 -55 37 -75 80 -58 11 4 76
64 144 133 l123 125 22 -42 c41 -78 41 -76 -5 -123 -27 -27 -37 -43 -28 -44 8
-1 33 -2 55 -3 54 -2 61 -8 76 -66 7 -28 15 -50 18 -50 3 0 19 21 35 48 16 26
31 48 32 50 2 3 56 -9 108 -25 17 -5 16 0 -8 42 -14 26 -26 53 -26 59 0 11
280 130 288 122 9 -10 -49 -78 -175 -203 -73 -73 -141 -133 -151 -134 -9 0
-112 -1 -229 -1 -195 0 -214 -2 -232 -20 -27 -25 -27 -63 1 -82 18 -13 55 -16
192 -16 l170 0 -68 -65 c-37 -36 -75 -65 -84 -65 -9 0 -115 -1 -234 -3 -204
-2 -218 -3 -232 -22 -21 -27 -20 -51 4 -75 18 -18 33 -20 187 -20 l168 0 -80
-80 c-43 -44 -81 -77 -84 -74 -7 6 -8 13 -10 49 0 14 -5 25 -11 25 -5 0 -31
-27 -57 -60 -54 -68 -50 -67 -155 -27 l-67 26 20 -52 c34 -84 41 -106 37 -116
-1 -5 -31 -32 -65 -59 -69 -55 -68 -57 19 -68 83 -10 93 -21 108 -110 l12 -78
22 25 c11 13 37 44 56 67 l36 43 79 -30 c43 -17 80 -29 82 -27 2 2 -9 37 -26
77 -16 41 -26 79 -22 85 3 7 33 33 65 60 63 51 62 62 -9 63 -29 1 -27 4 60 91
49 50 92 90 95 90 3 0 5 -83 6 -184 0 -204 4 -216 59 -216 57 0 59 9 61 264 1
127 2 242 3 255 0 15 24 46 61 82 33 33 61 59 63 59 2 0 3 -82 2 -182 0 -101
3 -191 7 -200 21 -45 89 -42 104 4 4 13 8 132 8 266 l1 243 126 123 c135 131
189 176 189 155 0 -12 -107 -278 -115 -287 -2 -2 -29 10 -60 27 l-56 31 5 -28
c20 -106 23 -94 -33 -126 -28 -17 -48 -32 -45 -35 3 -3 28 -12 57 -21 l52 -16
3 -62 c2 -34 7 -62 11 -62 5 0 25 19 44 42 l36 42 56 -27 c30 -15 57 -27 60
-27 2 0 -2 21 -10 47 -8 27 -15 53 -15 59 0 7 23 27 51 45 l52 33 -57 19 c-34
11 -55 24 -53 31 3 6 31 74 63 150 54 129 59 137 67 110 5 -16 9 -122 10 -236
l2 -208 -162 -162 c-130 -130 -163 -169 -163 -190 0 -28 31 -58 61 -58 10 0
66 48 127 108 60 59 115 113 124 119 13 11 14 2 13 -78 l-3 -91 -161 -162
c-169 -171 -183 -193 -143 -229 36 -32 59 -21 157 76 51 50 106 104 122 119
l28 27 -1 -107 c-1 -59 -2 -111 -3 -116 0 -5 -11 -1 -23 8 -61 43 -60 44 -52
-31 8 -80 8 -104 -3 -113 -4 -3 -38 -19 -75 -34 -37 -16 -66 -32 -63 -36 3 -4
35 -20 72 -36 75 -31 84 -39 78 -69 -13 -65 -13 -115 0 -115 19 0 65 21 65 30
0 4 15 15 34 25 l34 18 50 -36 c58 -43 95 -49 88 -15 -11 55 -15 114 -8 123 4
6 37 23 75 39 37 16 69 31 72 35 2 4 -26 20 -63 36 -94 40 -94 39 -86 99 3 28
7 66 9 84 l4 32 -37 -25 c-20 -14 -39 -25 -42 -25 -3 0 -6 58 -6 130 0 71 0
130 1 130 0 0 62 -61 136 -135 142 -142 167 -156 202 -117 37 41 25 59 -152
233 -93 92 -174 176 -180 188 -6 11 -11 57 -10 101 1 75 3 80 18 66 10 -9 72
-70 138 -136 68 -67 130 -120 140 -120 31 0 63 29 63 57 0 21 -39 66 -180 208
l-179 181 4 200 c5 227 5 226 17 222 11 -4 118 -257 118 -279 0 -11 -17 -21
-52 -30 -29 -8 -52 -18 -51 -23 0 -6 19 -19 41 -30 48 -25 52 -36 35 -95 -7
-24 -13 -48 -13 -53 0 -4 26 5 59 21 l58 30 38 -39 c21 -22 42 -37 47 -34 4 3
8 30 8 59 l0 54 62 19 63 18 -56 34 -56 33 14 55 c8 30 12 56 9 59 -2 2 -25
-7 -51 -22 -26 -14 -49 -24 -51 -23 -14 15 -119 288 -110 288 21 0 60 -33 196
-170 l135 -135 1 -234 c1 -215 3 -235 20 -248 24 -18 69 -17 84 2 10 12 13 63
14 185 0 94 2 170 3 170 5 0 123 -121 124 -128 1 -4 3 -104 4 -222 2 -118 3
-220 4 -227 2 -22 32 -43 62 -43 46 0 54 32 53 209 0 83 2 151 5 151 12 0 155
-149 149 -155 -5 -5 -32 -10 -77 -14 -7 0 15 -24 50 -52 35 -28 67 -56 70 -61
4 -6 -4 -36 -16 -67 -12 -31 -26 -66 -30 -79 l-6 -22 66 25 c95 35 103 34 155
-35 25 -32 48 -59 51 -59 4 -1 10 18 13 41 4 24 9 59 12 78 7 46 22 56 92 63
97 10 99 13 32 65 -33 26 -62 55 -65 64 -3 9 7 50 23 92 l29 75 -66 -26 c-106
-41 -101 -42 -155 26 -26 34 -52 61 -57 61 -5 0 -9 -12 -9 -27 0 -59 -14 -55
-105 37 l-90 90 140 0 c226 1 245 3 261 25 19 26 17 52 -6 75 -19 19 -33 20
-273 20 l-253 0 -64 65 -64 65 192 0 c179 0 193 1 212 20 11 11 20 29 20 40 0
11 -9 29 -20 40 -19 19 -33 20 -272 20 l-251 0 -124 123 c-115 113 -172 181
-161 193 5 5 268 -103 282 -116 5 -5 -5 -33 -23 -65 -27 -47 -29 -56 -14 -51
97 28 103 28 123 4 10 -13 24 -35 31 -50 16 -39 25 -35 39 20 7 26 17 51 22
57 4 5 34 9 65 10 31 0 58 5 59 10 2 6 -15 24 -36 40 -22 17 -39 38 -40 47 0
10 11 38 25 63 14 25 22 45 18 45 -4 0 -32 -7 -61 -14 l-54 -15 -30 50 c-17
27 -34 49 -38 49 -7 0 -12 -16 -26 -78 -1 -8 -5 -17 -8 -20 -8 -7 -296 109
-296 119 0 12 62 17 264 18 l198 2 167 -165 c136 -135 172 -165 190 -161 35 7
51 24 51 56 0 24 -21 51 -115 145 -63 63 -115 117 -115 119 0 3 39 5 87 5 l87
0 155 -154 c86 -84 165 -158 176 -164 28 -14 63 2 75 33 6 15 10 29 10 32 0 4
-55 62 -122 130 l-122 123 117 0 118 0 -26 -37 c-25 -37 -32 -59 -17 -49 4 2
43 8 85 11 l77 7 36 -78 c19 -42 38 -73 42 -68 5 5 19 34 32 64 37 84 35 83
114 75 38 -3 72 -7 75 -8 19 -6 5 26 -34 81 l-45 62 22 33 c13 17 25 34 28 37
15 13 49 68 45 72 -3 2 -36 0 -74 -5 -38 -5 -77 -7 -86 -4 -8 4 -25 28 -36 54
-11 27 -26 61 -33 76 l-13 28 -37 -82 -36 -81 -78 7 c-42 4 -80 9 -84 12 -15
9 -8 -15 12 -40 11 -14 20 -29 20 -35 0 -9 -226 -14 -242 -5 -4 2 52 61 123
132 71 71 129 133 130 137 0 5 2 17 4 26 5 25 -42 60 -69 52 -12 -3 -95 -79
-186 -169 -91 -90 -175 -168 -187 -174 -12 -6 -58 -11 -103 -11 l-82 0 136
135 c114 113 136 140 136 165 0 35 -38 65 -68 56 -11 -4 -100 -86 -198 -182
l-178 -175 -202 3 c-123 2 -207 7 -213 13 -8 8 33 29 130 69 84 35 144 55 150
49 5 -5 17 -32 27 -61 l17 -53 30 50 c32 55 43 58 108 40 22 -6 41 -9 43 -7 2
2 -8 25 -21 51 -14 25 -25 50 -25 54 0 4 19 27 41 51 32 33 37 42 22 43 -10 1
-38 2 -61 4 -49 2 -58 12 -67 67 -4 21 -11 40 -15 43 -5 3 -21 -14 -35 -39
-14 -24 -32 -47 -40 -50 -8 -3 -36 1 -62 9 -26 8 -49 13 -51 11 -1 -2 9 -25
23 -51 15 -26 23 -51 18 -55 -8 -8 -176 -80 -245 -106 -21 -7 -38 -9 -38 -5 0
19 66 94 182 208 l125 123 54 1 c30 0 136 1 237 2 172 2 184 3 195 22 19 33
18 54 -3 75 -18 18 -34 20 -192 20 l-173 0 66 65 67 65 116 1 c64 0 167 0 229
1 115 0 137 6 150 41 6 16 -4 49 -20 67 -3 3 -80 7 -173 10 l-169 5 76 78 c41
43 77 77 79 75 4 -4 12 -44 13 -65 2 -24 20 -13 61 40 23 28 48 55 55 60 8 4
45 -4 85 -19 39 -15 73 -24 76 -21 3 2 -6 33 -20 68 -15 34 -26 70 -26 79 0 9
27 38 60 63 52 41 77 71 53 65 -8 -2 -86 8 -134 18 -24 5 -27 11 -38 89 -7 47
-16 85 -20 85 -3 0 -16 -15 -28 -33 -13 -17 -36 -47 -52 -66 l-29 -34 -48 18
c-27 10 -53 22 -59 25 -5 4 -20 10 -33 13 -26 6 -26 2 14 -97 13 -33 24 -60
24 -61 0 -2 -74 -59 -129 -102 -9 -7 10 -16 44 -22 l36 -6 -91 -90 -90 -90 0
186 c0 202 -5 222 -54 222 -59 0 -61 -10 -63 -276 -1 -133 -2 -247 -2 -254 -1
-11 -115 -133 -125 -133 -3 0 -5 83 -5 184 0 111 -4 192 -10 204 -21 39 -84
32 -99 -10 -5 -13 -8 -100 -8 -195 l1 -172 -25 6 c-14 3 -41 11 -60 18 -34 12
-35 13 -38 73 -2 34 -7 62 -12 62 -5 0 -27 -19 -49 -42 l-39 -42 -52 28 c-28
15 -53 26 -55 24 -2 -2 2 -27 9 -55 8 -28 11 -55 7 -60 -3 -6 -27 -23 -53 -39
l-48 -30 60 -17 60 -18 -16 -37 c-8 -20 -34 -82 -56 -137 -23 -55 -44 -104
-48 -108 -19 -21 -28 65 -26 251 l1 201 163 164 c108 109 162 170 162 185 0
26 -37 62 -62 62 -10 0 -72 -54 -139 -120 -67 -66 -122 -120 -124 -120 -1 0
-2 40 -3 89 l0 90 164 165 c103 103 164 173 164 185 0 26 -37 61 -65 61 -13 0
-62 -42 -135 -115 -63 -63 -117 -115 -121 -115 -3 0 -6 50 -6 110 0 61 3 109
6 107 3 -1 18 -9 34 -16 15 -8 27 -18 27 -23 0 -5 4 -7 9 -3 6 3 8 20 6 38
-17 125 -17 126 7 140 13 8 49 25 80 37 31 13 55 27 53 31 -3 4 -35 19 -72 34
-38 15 -71 32 -75 38 -7 11 -3 78 8 150 5 33 4 33 -78 -30 -31 -24 -61 -43
-66 -43 -8 0 -48 29 -102 74 -41 33 -42 31 -35 -35z m640 -1271 c-2 -24 -3
-53 -4 -65 -1 -25 -243 -273 -291 -298 -17 -9 -30 -14 -30 -12 0 7 119 289
124 294 3 3 30 -10 62 -28 l57 -32 -7 29 c-5 16 -10 40 -12 53 -3 14 -7 28
-10 33 -5 8 84 67 102 68 7 0 10 -17 9 -42z m-461 -455 c10 -29 23 -53 30 -53
6 0 44 16 84 35 40 19 72 33 72 31 0 -2 -16 -38 -35 -80 -19 -43 -35 -79 -35
-81 0 -2 17 -9 38 -16 20 -7 57 -21 82 -31 l45 -20 -79 -29 c-43 -16 -81 -31
-84 -33 -2 -3 12 -39 32 -81 20 -42 36 -78 36 -80 0 -2 -33 12 -74 31 -41 19
-79 34 -84 34 -5 0 -22 -36 -37 -80 -29 -81 -38 -89 -49 -45 -4 14 -16 50 -27
80 l-20 55 -47 -24 c-26 -13 -64 -31 -84 -39 l-38 -16 15 32 c9 18 22 44 30
58 41 75 42 74 -46 105 -43 15 -79 31 -79 35 0 4 30 17 68 30 37 12 72 26 79
31 8 7 2 27 -23 78 -19 38 -34 74 -34 80 0 6 36 -8 79 -30 l80 -40 20 56 c12
30 21 57 21 59 0 2 5 16 11 32 l11 28 12 -30 c7 -16 21 -54 30 -82z m-401
-286 c26 -12 23 -14 -104 -66 -181 -74 -164 -74 -187 -1 l-19 62 -31 -51 c-18
-28 -39 -51 -47 -51 -24 0 -105 24 -105 31 0 3 20 25 45 48 l45 41 187 0 c124
-1 197 -5 216 -13z"/>
</g>
</svg>
