<svg width="20" height="20" viewBox="0 0 20 20" fill="none" xmlns="http://www.w3.org/2000/svg">
<path d="M9.97149 20C8.657 20.0005 7.35539 19.7409 6.1416 19.2363C4.92781 18.7317 3.8258 17.9921 2.89901 17.0599C1.97222 16.1277 1.23895 15.0214 0.741407 13.8047C0.243864 12.588 -0.00812596 11.285 -5.6284e-05 9.97048C-0.000790896 8.65604 0.258525 7.35445 0.762959 6.14066C1.26739 4.92687 2.00697 3.82487 2.93911 2.89812C3.87125 1.97137 4.97752 1.23819 6.19421 0.740802C7.41091 0.243414 8.71399 -0.00835229 10.0284 2.97801e-06C11.3429 -0.000730687 12.6445 0.258579 13.8584 0.762999C15.0722 1.26742 16.1743 2.00698 17.1011 2.93911C18.028 3.87123 18.7612 4.97749 19.2588 6.19419C19.7563 7.41089 20.0082 8.71399 19.9999 10.0285C20.0005 11.3429 19.7411 12.6445 19.2367 13.8583C18.7322 15.0721 17.9926 16.1741 17.0605 17.1009C16.1284 18.0277 15.0222 18.761 13.8056 19.2585C12.589 19.7561 11.2859 20.0081 9.97149 20ZM8.98808 7.46471C8.98808 8.28386 8.94728 9.10516 9.00848 9.91895C9.0321 10.2335 9.20602 10.6619 9.4508 10.8133C10.9002 11.7076 12.3849 12.5546 13.8708 13.3791C14.0139 13.4632 14.1761 13.5093 14.3421 13.5129C14.508 13.5166 14.6721 13.4777 14.8188 13.4C14.9655 13.3223 15.0898 13.2084 15.18 13.0691C15.2702 12.9297 15.3233 12.7696 15.3341 12.604C15.3792 12.123 15.1419 11.7977 14.735 11.5648C13.626 10.9292 12.5288 10.2765 11.4069 9.65592C11.0955 9.48414 10.9946 9.29089 11.0011 8.94412C11.0215 7.66332 11.0129 6.38145 11.0011 5.10065C11.0011 4.4318 10.5716 3.96264 9.9833 3.96908C9.39497 3.97553 8.98486 4.44147 8.98057 5.11676C8.98379 5.89941 8.98808 6.68206 8.98808 7.46471Z" fill="#3357AA"/>
</svg>
